<?xml version="1.0" encoding="UTF-8"?>
<!DOCTYPE svg PUBLIC "-//W3C//DTD SVG 1.1//EN" "http://www.w3.org/Graphics/SVG/1.1/DTD/svg11.dtd">
<!-- Creator: CorelDRAW -->
<svg xmlns="http://www.w3.org/2000/svg" xml:space="preserve" width="82.5451mm" height="134.698mm" version="1.1" style="shape-rendering:geometricPrecision; text-rendering:geometricPrecision; image-rendering:optimizeQuality; fill-rule:evenodd; clip-rule:evenodd"
viewBox="0 0 1984.73 3238.72"
 xmlns:xlink="http://www.w3.org/1999/xlink"
 xmlns:xodm="http://www.corel.com/coreldraw/odm/2003">
 <defs>
  <style type="text/css">
   <![CDATA[
    .fil0 {fill:#143C75;fill-rule:nonzero}
   ]]>
  </style>
 </defs>
 <g id="Слой_x0020_1">
  <metadata id="CorelCorpID_0Corel-Layer"/>
  <path class="fil0" d="M926.96 0.29c-109.4,19.14 -224.76,56.62 -322.54,110.48 -182.2,100.4 -301.19,249.6 -346.54,454.28 -29.57,133.47 -20.97,266.32 9.86,398.49 28.68,122.99 78.29,238.05 134.39,350.45 60.32,120.86 134.82,233.38 206.99,347.28 85.69,135.3 167.27,272.69 224.63,423.31 43.23,113.32 76.36,228.53 81.33,350.45 6.95,170.39 -36.99,325.78 -138,463.89 -96.96,132.57 -226.12,224.88 -372.74,294.82 -30.43,14.5 -61.69,27.3 -93.57,41.36 2.3,0 3.51,0.24 4.64,0 107.92,-24.55 211.44,-60.72 307.32,-116.66 165.08,-96.29 287.24,-229.99 353.37,-411.1 58.05,-159.17 61.84,-322.16 26.47,-486.3 -34.29,-159.16 -93.08,-309.7 -175.45,-449.97 -72.17,-122.94 -147.92,-243.76 -223.42,-364.62 -82.25,-131.73 -153.18,-269.01 -204.48,-415.72 -42.07,-120.38 -63.24,-244.04 -50.82,-372.25 14.29,-147.67 74.93,-273.6 177.91,-379.45 71.4,-73.33 155.98,-128.09 248.43,-170.66 48.02,-22.13 107.1,-47.96 155.6,-68.12 -0.22,0 -1.83,-0.19 -3.38,0.05zm250.71 0.16c-98.34,17.48 -217.86,58.39 -307.32,103.61 -181.3,91.63 -307.38,230.66 -362.88,428.67 -40.67,145.25 -33.82,290.89 -0.25,436.36 27.69,119.83 75.75,232.1 129.81,341.86 60.56,123.04 135.77,237.53 209.35,352.94 92.75,145.44 179.41,293.98 238.63,457.12 47.05,129.45 77.43,261.34 69.33,400.22 -10.21,174.09 -75.91,324.41 -193.19,452.47 -95.36,104.11 -211.19,179.41 -339.17,237.14 -22.12,9.96 -45.36,16.76 -67.61,26.38 9.21,-0.04 17.87,-1.93 26.47,-4.05 153.52,-38.32 295.83,-98.65 416.2,-203.57 164.87,-143.76 251.31,-326.27 265.7,-543.46 7.68,-115.39 -8.32,-228.33 -40,-339.24 -46.04,-160.92 -116.05,-311.09 -203.96,-453.12 -70.48,-113.96 -143.09,-226.66 -211.93,-341.58 -72.98,-121.83 -134.81,-249.41 -177.85,-385.18 -34.98,-110.48 -51.89,-223.42 -41.02,-339.69 13.77,-146.81 73.29,-272.42 175.07,-378.24 74.72,-77.78 164.18,-134.64 261.81,-178.79 44.05,-19.95 113.43,-51.31 159.81,-70.29 -3.1,0.2 -5.07,0.1 -7.02,0.45zm519.4 -0.25c-111.15,18.78 -274.33,76.61 -373.61,131.28 -166.31,91.65 -281.86,225.4 -334.81,409.64 -39.76,138.25 -35.98,277.62 -7.15,417.22 24.63,119.37 70.76,231.01 122.61,340.52 59.95,126.66 136.22,243.84 211.15,361.72 90.95,143.14 178.72,287.7 239.17,447.35 40.42,106.86 72.31,215.32 79.3,329.94 12.91,212.35 -52.01,397.42 -196.69,553.6 -105.52,113.9 -198.63,175.15 -340.9,234.24 -4.55,1.87 -9.1,3.66 -13.58,5.54 -4.5,1.83 -8.99,3.72 -13.42,5.62 2.22,1.33 3.86,1.3 5.41,0.91 100.9,-23.29 161.57,-39.71 252.35,-90.24 138.44,-77.04 250.13,-181.54 325.15,-322.41 89.65,-168.38 109.9,-347.94 79.36,-533.93 -27.39,-166.85 -85.94,-323.7 -168.83,-470.31 -70.71,-125.05 -147.14,-246.98 -223.69,-368.67 -84.7,-134.53 -159.27,-273.95 -213.96,-423.31 -45.12,-123.27 -68.78,-250.27 -57.68,-382.29 12.42,-146.9 70.64,-273.12 171.59,-379.82 72.35,-76.58 158.97,-133.43 254.03,-177.34 49.07,-22.65 155.6,-68.88 204.53,-89.23 1.21,0.21 0.39,-0.19 -0.34,-0.04zm-881.4 3238.52c2.27,-0.29 4.59,-0.35 6.82,-0.88 107.72,-25.21 190.47,-52.64 285.97,-109.27 149.33,-88.55 263.85,-208.78 332.35,-369.78 69.08,-162.26 78.75,-330.66 45.84,-502.14 -28.65,-149.51 -81.26,-291.09 -154,-424.38 -51.45,-94.29 -108.26,-185.74 -164.78,-277.17 -82.36,-133.38 -168.19,-264.63 -232.05,-408.67 -41.74,-94.16 -77.88,-189.8 -96.66,-291.34 -17.39,-94.15 -20.73,-188.64 -2.47,-282.98 30.95,-159.71 115.93,-285.83 243.08,-384.75 94.29,-73.44 227.66,-143.77 340.16,-182.13 2.33,-0.78 4.68,-1.51 6.95,-2.42 1.83,-0.72 3.63,-1.7 5.47,-2.57 -123.91,19.66 -269.18,75.21 -377,140.67 -196.12,119.07 -306.06,293.51 -331.18,521.14 -12.07,109.27 -1.07,217.19 25.41,323.55 36.8,148.16 97.92,286.74 173.61,418.44 61.25,106.6 127.96,210.02 193.28,314.27 86.27,137.73 163.41,279.79 217.19,433.79 46.55,133.38 72.6,269.4 57.72,411.43 -15.89,151.01 -74.69,283.28 -173.38,397.91 -95.87,111.35 -215.01,191.06 -347.36,252.25 -25.02,11.54 -30.04,12.66 -55.36,23.62 0.15,0.49 0.29,0.97 0.38,1.41zm-744.02 -0.69c1.46,-0.14 2.9,-0.2 4.3,-0.49 103.73,-23.96 206.23,-68.48 299.08,-121.29 141.96,-80.77 254.82,-190.27 327.85,-337.71 85.22,-172.02 99.56,-353.27 64.92,-539.65 -26.42,-142.35 -77.48,-276.6 -142.64,-405.42 -57.06,-112.81 -125.9,-218.8 -193.19,-325.65 -72.26,-114.72 -145.25,-228.98 -202.2,-352.64 -45.18,-97.97 -85.47,-197.24 -107,-303.35 -19.71,-97.06 -25.17,-194.55 -7.3,-292.5 29.66,-162.31 114.39,-290.71 243.12,-391.38 93.82,-73.43 200.14,-123.14 312.16,-161.64 4.15,-1.45 8.31,-3.04 15.18,-5.51 -4.11,-0.47 -4.94,-0.77 -5.66,-0.69 -113.62,19.48 -223.13,51.45 -324,108.51 -167.04,94.49 -280.7,231.68 -330.54,418.67 -38.27,143.58 -30.83,287.14 2.55,430.46 26.95,115.79 73.27,224.29 124.77,330.75 57.93,119.81 130.53,231.11 201.77,343.17 91.84,144.44 180.28,290.47 241.15,451.71 44.48,117.83 77.58,237.62 79.71,364.38 2.89,172.42 -47.01,327.63 -153.38,463.81 -98.02,125.49 -227.76,223.26 -370.7,289.97 -26.47,12.31 -53.53,23.44 -80.28,35.13 0.1,0.42 0.24,0.92 0.32,1.35zm1853.97 -3237.68c-103.67,18.01 -188.83,42.94 -298.01,95.05 -166.41,86.83 -333.55,249.13 -392.2,429.74 -45.51,140.32 -44.59,282.83 -16.86,426.25 20.91,108.31 60.44,210.24 104.92,310.62 50.73,114.34 115.8,220.52 181.39,326.59 59.96,96.96 120.19,193.81 178.78,291.64 44.01,73.52 77.83,152.06 109.27,231.7 41.64,105.55 72.66,213.53 80.25,327.23 14.68,219.37 -53.18,409.27 -205.01,568.43 -93.62,98.07 -146.36,145.3 -269.46,200.53 -22.22,9.94 -44.73,19.26 -69.27,29.8 3.68,0 4.88,0.25 5.99,-0.04 106.23,-24.25 148.83,-35.66 243.47,-90.34 161.1,-93.14 282.36,-222.02 350.56,-396.93 63.09,-161.64 69.07,-328 33.82,-496.26 -33.43,-159.46 -91.74,-310.17 -173.75,-450.7 -72.72,-124.48 -149.33,-246.7 -225.75,-368.92 -79.08,-126.5 -147.32,-258.23 -198.67,-398.33 -44.9,-122.46 -68.8,-248.53 -58.27,-379.77 11.74,-145.55 68.26,-271.19 167.13,-378.04 62.7,-67.73 184.88,-153.77 266.13,-196.67 61,-32.17 124.73,-58.02 190.27,-81.58 -1.61,0 -3.19,-0.25 -4.73,0z"/>
 </g>
</svg>
